<svg width="960" height="700" viewBox="0 0 960 700" fill="none" xmlns="http://www.w3.org/2000/svg">
<path d="M478.726 202.74L198.266 269.34L270.966 404.98H686.486L759.204 269.34L478.724 202.74H478.726ZM564.648 350.422L393.626 351.301L334.266 287.481L478.724 249.141L623.184 287.461L564.644 350.421L564.648 350.422Z" fill="#ADADAD"/>
<path d="M479.576 94.6641C266.996 94.6641 94.6562 208.76 94.6562 349.504C94.6562 490.248 266.99 604.344 479.576 604.344C692.162 604.344 864.496 490.246 864.496 349.504C864.496 208.758 692.162 94.6641 479.576 94.6641ZM479.576 106.664C580.062 106.664 674.37 132.464 745.136 179.312C814.372 225.15 852.502 285.594 852.502 349.506C852.502 413.418 814.374 473.864 745.136 519.7C674.376 566.548 580.068 592.348 479.576 592.348C379.084 592.348 284.78 566.548 214.016 519.7C144.78 473.864 106.652 413.418 106.652 349.506C106.652 285.592 144.78 225.15 214.016 179.312C284.776 132.464 379.086 106.664 479.576 106.664Z" fill="white"/>
<path d="M585.624 299.32L478.404 267.74L371.844 299.16L390.444 317.82L466.124 295.3V297.66L471.584 301.12H486.244L491.704 297.66V295.4L567.044 317.72L585.624 299.32Z" fill="white"/>
<path d="M523.177 493.46H504.892V452.668H523.177V493.46ZM487.341 493.46H469.055V452.668H487.341V493.46ZM451.505 493.46H433.133V452.668H451.505V493.46ZM698.265 424.434L694.906 431.124H260.706L257.347 424.417L182.479 274.969L181.078 277.049V310.24L262.24 484.811H390.036V452.939L415.584 452.772V493.46H408.94V503.077H547.706V493.46H541.063V452.668H565.969L565.983 484.81H693.209L776.349 310.238V277.048L773.962 273.584C748.918 323.644 698.77 423.426 698.264 424.432L698.265 424.434Z" fill="white"/>
<path d="M633.17 286.14L698.91 257.808L754.704 271.371L743.196 292.907L633.17 286.14ZM706.794 360.766L573.854 344.928L622.34 292.784L738.628 301.424L706.794 360.766ZM700.611 372.286C696.314 380.332 689.234 393.524 684.689 401.984H580.923C577.239 386.409 573.556 370.838 569.872 355.268C613.668 360.537 657.464 365.813 701.26 371.084C701.043 371.486 700.827 371.883 700.611 372.286ZM391.871 401.984L399.804 354.294C400.073 354.27 557.098 353.501 557.098 353.501L565.573 401.983L391.871 401.984ZM376.524 401.984H272.758C268.215 393.525 261.135 380.334 256.836 372.286C256.619 371.883 256.404 371.485 256.187 371.083C299.983 365.811 343.779 360.536 387.575 355.266C383.89 370.837 380.207 386.41 376.524 401.984ZM218.818 301.426L335.106 292.786L383.592 344.93L250.65 360.768L218.818 301.426ZM202.74 271.372L258.536 257.808L324.274 286.14L214.248 292.907L202.74 271.372ZM408.34 222.406L465.218 249.624L336.936 283.666L272.684 254.372L408.34 222.406ZM478.73 205.842L535.558 219.44L478.73 246.318L421.9 219.44L478.73 205.842ZM346.014 291.866C346.012 291.864 346.01 291.862 346.01 291.861C346.018 291.87 478.578 252.867 478.578 252.867L611.1 292.005L562.222 341.473H395.074L346.018 291.869C346.016 291.867 346.014 291.865 346.014 291.863C346.014 291.863 346.014 291.864 346.014 291.863L346.014 291.866ZM684.774 254.37L620.522 283.664L492.24 249.622L549.118 222.404L684.772 254.37H684.774ZM478.574 201.334C455.206 206.538 216.374 260.27 192.094 265.716C192.094 265.716 242.496 366.328 267.696 416.63H689.396C689.474 416.63 740.104 315.734 765.34 265.284C743.294 260.567 500.84 206.292 478.56 201.334H478.574Z" fill="white"/>
</svg>
