<svg width="1139" height="424" viewBox="0 0 1139 424" fill="none" xmlns="http://www.w3.org/2000/svg">
<g clip-path="url(#clip0_345_2)">
<path d="M590.332 99.7561V146.672C590.332 148.208 590.402 149.998 590.542 152.043C590.679 154.089 591.029 156.192 591.585 158.346C592.139 160.504 592.922 162.622 593.929 164.703C594.936 166.786 596.309 168.65 598.044 170.293C599.778 171.94 601.92 173.256 604.455 174.24C606.989 175.227 610.066 175.72 613.678 175.72C618.264 175.72 622.104 175.047 625.194 173.691C628.286 172.34 630.786 170.404 632.697 167.88C634.606 165.362 635.981 162.312 636.816 158.728C637.645 155.149 638.065 151.131 638.065 146.672V99.7561H642.648V146.672C642.648 151.35 642.181 155.698 641.242 159.715C640.305 163.735 638.721 167.245 636.5 170.24C634.276 173.234 631.305 175.594 627.591 177.31C623.874 179.025 619.235 179.884 613.679 179.884C609.302 179.884 605.55 179.298 602.423 178.13C599.296 176.962 596.708 175.447 594.658 173.583C592.608 171.719 590.996 169.582 589.814 167.17C588.632 164.758 587.732 162.331 587.106 159.88C586.479 157.433 586.096 155.057 585.959 152.754C585.817 150.454 585.75 148.426 585.75 146.672V99.7556L590.332 99.7561Z" fill="white"/>
<path d="M715.321 122.119C715.182 118.758 714.503 115.834 713.291 113.349C712.072 110.866 710.424 108.784 708.339 107.101C706.254 105.421 703.771 104.161 700.886 103.319C698.004 102.479 694.859 102.06 691.456 102.06C689.371 102.06 687.131 102.315 684.733 102.827C682.337 103.338 680.111 104.234 678.064 105.511C676.015 106.793 674.329 108.508 673.009 110.663C671.689 112.819 671.03 115.506 671.03 118.721C671.03 121.864 671.759 124.421 673.219 126.394C674.677 128.367 676.586 129.959 678.951 131.162C681.313 132.369 684.021 133.338 687.078 134.065C690.138 134.798 693.226 135.493 696.353 136.149C699.549 136.808 702.661 137.593 705.681 138.507C708.705 139.422 711.413 140.663 713.81 142.234C716.209 143.806 718.136 145.85 719.596 148.372C721.054 150.892 721.781 154.054 721.781 157.854C721.781 161.948 720.95 165.383 719.282 168.157C717.616 170.936 715.513 173.201 712.976 174.952C710.439 176.708 707.625 177.966 704.536 178.735C701.443 179.502 698.473 179.886 695.624 179.886C691.246 179.886 687.145 179.395 683.328 178.408C679.503 177.419 676.169 175.814 673.322 173.584C670.474 171.356 668.232 168.486 666.6 164.979C664.966 161.472 664.186 157.197 664.254 152.155H668.841C668.634 156.466 669.221 160.1 670.612 163.06C672.001 166.02 673.93 168.45 676.397 170.35C678.862 172.251 681.766 173.621 685.1 174.461C688.434 175.3 691.941 175.721 695.623 175.721C697.846 175.721 700.226 175.431 702.763 174.845C705.3 174.259 707.625 173.272 709.747 171.885C711.864 170.497 713.635 168.67 715.062 166.403C716.482 164.139 717.197 161.289 717.197 157.854C717.197 154.567 716.466 151.88 715.007 149.797C713.549 147.713 711.621 146.033 709.224 144.754C706.827 143.477 704.116 142.454 701.094 141.687C698.074 140.919 694.963 140.207 691.769 139.547C688.644 138.892 685.55 138.124 682.494 137.245C679.433 136.368 676.724 135.181 674.363 133.685C672.001 132.186 670.093 130.25 668.634 127.874C667.175 125.5 666.443 122.447 666.443 118.722C666.443 114.995 667.188 111.799 668.684 109.13C670.178 106.463 672.123 104.307 674.521 102.664C676.917 101.018 679.61 99.8121 682.597 99.0451C685.582 98.2765 688.538 97.8929 691.455 97.8929C695.346 97.8929 698.974 98.3527 702.347 99.2637C705.715 100.179 708.668 101.603 711.205 103.539C713.741 105.476 715.771 107.978 717.299 111.047C718.829 114.115 719.699 117.807 719.907 122.119L715.321 122.119Z" fill="white"/>
<path d="M611.73 272.137C615.356 272.137 618.999 271.548 622.664 270.362C626.325 269.182 629.643 267.199 632.617 264.412C635.59 261.63 638.002 257.891 639.852 253.202C641.699 248.51 642.629 242.615 642.629 235.521C642.629 229.955 642.099 225.185 641.048 221.218C639.998 217.25 638.618 213.914 636.914 211.202C635.208 208.498 633.251 206.36 631.04 204.795C628.827 203.234 626.543 202.031 624.183 201.19C621.829 200.353 619.471 199.798 617.115 199.532C614.758 199.264 612.636 199.13 610.752 199.13H590.84V272.137L611.73 272.137ZM586.055 194.782H611.513C618.475 194.782 624.257 195.925 628.866 198.216C633.471 200.503 637.15 203.556 639.907 207.37C642.664 211.186 644.602 215.537 645.729 220.416C646.85 225.298 647.413 230.335 647.413 235.519C647.413 241.317 646.705 246.717 645.291 251.711C643.878 256.709 641.684 261.037 638.711 264.699C635.736 268.362 631.981 271.243 627.449 273.339C622.918 275.439 617.531 276.487 611.293 276.487H586.055L586.055 194.782Z" fill="white"/>
<path d="M713.522 199.119H666.09V231.855H710.695V236.2H666.09V272.137H714.061V276.482H661.305V194.774H713.522V199.119Z" fill="white"/>
<path d="M735.52 235.738H762.829C766.311 235.738 769.264 235.186 771.696 234.079C774.123 232.974 776.062 231.542 777.514 229.789C778.964 228.034 780.017 226.087 780.67 223.953C781.324 221.816 781.65 219.679 781.65 217.543C781.65 216.018 781.431 214.205 780.994 212.106C780.56 210.009 779.692 207.986 778.386 206.04C777.077 204.096 775.245 202.459 772.892 201.122C770.535 199.786 767.397 199.119 763.48 199.119H735.519L735.52 235.738ZM730.735 194.771H763.808C765.981 194.771 768.395 195.04 771.043 195.571C773.688 196.105 776.156 197.194 778.439 198.832C780.723 200.476 782.626 202.801 784.151 205.814C785.675 208.829 786.437 212.777 786.437 217.657C786.437 224.831 784.331 230.362 780.127 234.252C775.92 238.141 769.899 240.089 762.063 240.089H735.519V276.476H730.734L730.735 194.771Z" fill="white"/>
<path d="M850.065 194.774V199.119H822.653V276.482H817.868V199.119H790.555V194.774H850.065Z" fill="white"/>
<path d="M891.557 235.628C891.557 240.892 892.286 245.849 893.737 250.501C895.186 255.157 897.288 259.216 900.047 262.689C902.799 266.16 906.173 268.924 910.163 270.984C914.149 273.044 918.687 274.071 923.764 274.071C928.839 274.071 933.353 273.044 937.308 270.984C941.258 268.924 944.612 266.16 947.371 262.689C950.125 259.216 952.228 255.157 953.68 250.501C955.13 245.849 955.857 240.891 955.857 235.628C955.857 230.365 955.13 225.406 953.68 220.75C952.229 216.098 950.125 212.034 947.371 208.563C944.612 205.092 941.258 202.328 937.308 200.267C933.352 198.208 928.838 197.178 923.764 197.178C918.687 197.178 914.149 198.208 910.163 200.267C906.173 202.328 902.799 205.092 900.047 208.563C897.288 212.034 895.186 216.098 893.737 220.75C892.286 225.406 891.557 230.365 891.557 235.628ZM960.646 235.628C960.646 241.577 959.809 247.166 958.144 252.392C956.474 257.618 954.064 262.153 950.909 266.009C947.752 269.86 943.892 272.893 939.321 275.105C934.751 277.318 929.564 278.425 923.765 278.425C917.961 278.425 912.757 277.318 908.154 275.105C903.545 272.893 899.666 269.86 896.511 266.009C893.357 262.153 890.945 257.618 889.274 252.392C887.606 247.166 886.773 241.577 886.773 235.628C886.773 229.677 887.606 224.089 889.274 218.863C890.945 213.637 893.357 209.097 896.511 205.246C899.666 201.394 903.545 198.361 908.154 196.146C912.758 193.933 917.961 192.827 923.765 192.827C929.563 192.827 934.751 193.933 939.321 196.146C943.892 198.361 947.752 201.394 950.909 205.246C954.064 209.097 956.474 213.637 958.144 218.863C959.809 224.089 960.646 229.677 960.646 235.628Z" fill="white"/>
<path d="M1021.98 199.119H978.019V231.855H1017.62V236.2H978.019V276.482H973.234V194.774H1021.98V199.119Z" fill="white"/>
<path d="M619.522 360.555C622.076 360.555 624.553 360.124 626.96 359.252C629.363 358.384 631.504 356.941 633.381 354.926C635.259 352.913 636.762 350.285 637.891 347.046C639.018 343.806 639.58 339.854 639.58 335.194C639.58 330.927 639.185 327.073 638.398 323.635C637.608 320.2 636.312 317.256 634.51 314.806C632.707 312.356 630.323 310.479 627.356 309.177C624.386 307.869 620.723 307.219 616.366 307.219H603.746V360.555L619.522 360.555ZM620.762 291.573C625.945 291.573 630.773 292.445 635.244 294.183C639.711 295.919 643.582 298.527 646.846 302.005C650.116 305.482 652.668 309.828 654.511 315.043C656.351 320.257 657.272 326.384 657.272 333.416C657.272 339.578 656.519 345.268 655.018 350.483C653.512 355.697 651.241 360.201 648.199 363.995C645.159 367.786 641.363 370.769 636.821 372.94C632.274 375.118 626.921 376.201 620.762 376.201H586.055V291.573H620.762Z" fill="white"/>
<path d="M691.024 307.216V325.355H730.008V339.82H691.024V360.555H734.408V376.208H673.336V291.574H733.506V307.216H691.024Z" fill="white"/>
<path d="M769.68 307.216V326.774H803.373V341.239H769.68V376.208H751.992V291.574H808.554V307.216H769.68Z" fill="white"/>
<path d="M840.527 307.216V325.355H879.511V339.82H840.527V360.555H883.911V376.208H822.828V291.574H883.009V307.216H840.527Z" fill="white"/>
<path d="M954.475 348.356V291.574H971.041V376.208H953.353L919.891 319.547H919.66V376.208H903.094V291.574H920.672L954.255 348.356H954.475Z" fill="white"/>
<path d="M1005.76 355.341C1006.74 357.315 1008.03 358.92 1009.65 360.141C1011.26 361.367 1013.16 362.275 1015.34 362.866C1017.52 363.459 1019.77 363.756 1022.1 363.756C1023.68 363.756 1025.37 363.619 1027.17 363.343C1028.97 363.066 1030.66 362.532 1032.24 361.742C1033.82 360.955 1035.13 359.868 1036.19 358.482C1037.24 357.1 1037.76 355.341 1037.76 353.21C1037.76 350.916 1037.07 349.059 1035.68 347.639C1034.29 346.215 1032.47 345.029 1030.22 344.082C1027.96 343.135 1025.4 342.304 1022.55 341.594C1019.7 340.881 1016.8 340.092 1013.87 339.222C1010.87 338.434 1007.94 337.464 1005.09 336.318C1002.23 335.174 999.675 333.691 997.421 331.876C995.165 330.056 993.347 327.786 991.957 325.06C990.563 322.333 989.872 319.033 989.872 315.16C989.872 310.816 990.754 307.044 992.52 303.842C994.283 300.643 996.595 297.976 999.451 295.84C1002.31 293.709 1005.54 292.129 1009.14 291.098C1012.74 290.075 1016.35 289.558 1019.96 289.558C1024.17 289.558 1028.2 290.054 1032.07 291.041C1035.94 292.032 1039.38 293.631 1042.38 295.84C1045.39 298.053 1047.77 300.878 1049.54 304.318C1051.3 307.752 1052.18 311.923 1052.18 316.822H1035.06C1034.91 314.295 1034.4 312.196 1033.54 310.538C1032.67 308.881 1031.53 307.575 1030.1 306.627C1028.67 305.678 1027.04 305.008 1025.2 304.614C1023.36 304.218 1021.35 304.021 1019.17 304.021C1017.74 304.021 1016.32 304.18 1014.89 304.494C1013.46 304.812 1012.17 305.365 1011 306.154C1009.84 306.945 1008.88 307.932 1008.13 309.115C1007.38 310.301 1007 311.803 1007 313.619C1007 315.28 1007.3 316.623 1007.9 317.65C1008.5 318.677 1009.68 319.626 1011.45 320.496C1013.22 321.364 1015.66 322.234 1018.78 323.1C1021.89 323.972 1025.97 325.079 1031 326.422C1032.5 326.736 1034.59 327.31 1037.26 328.142C1039.92 328.969 1042.57 330.295 1045.2 332.113C1047.83 333.929 1050.1 336.357 1052.02 339.4C1053.93 342.443 1054.89 346.335 1054.89 351.074C1054.89 354.947 1054.18 358.541 1052.75 361.861C1051.32 365.179 1049.2 368.045 1046.38 370.453C1043.57 372.866 1040.07 374.74 1035.91 376.084C1031.74 377.426 1026.91 378.098 1021.42 378.098C1016.99 378.098 1012.69 377.523 1008.52 376.378C1004.35 375.234 1000.67 373.437 997.478 370.986C994.283 368.536 991.751 365.418 989.872 361.624C987.994 357.828 987.092 353.324 987.169 348.11H1004.3C1004.3 350.954 1004.78 353.367 1005.76 355.341Z" fill="white"/>
<path d="M1085.46 307.216V325.355H1124.45V339.82H1085.46V360.555H1128.85V376.208H1067.77V291.574H1127.97V307.216H1085.46Z" fill="white"/>
<path d="M647.852 170.673H653.99V179.891H647.852V170.673Z" fill="white"/>
<path d="M727.758 170.673H733.896V179.891H727.758V170.673Z" fill="white"/>
<path d="M74.8163 378.1L10.735 190.528L10.1484 132.578L74.9945 311.011L74.8163 378.1Z" fill="url(#paint0_linear_345_2)"/>
<path d="M476.117 378.1L538.366 190.528L539.213 133.224L476.117 310.12V378.1Z" fill="url(#paint1_linear_345_2)"/>
<path d="M365.475 219.304H193.732L176.217 173.43L165.42 145.152L278.247 108.315L393.164 145.152L365.475 219.304ZM278.402 45.9L14.9297 129.982L79.5536 299.239H471.561L534.765 129.982L278.402 45.9Z" fill="url(#paint2_linear_345_2)"/>
<path d="M82.5267 310.142H467.902V377.484H82.5234L82.5267 310.142Z" fill="url(#paint3_linear_345_2)"/>
<path d="M274.443 149.285V117.377L175.234 149.842L184.936 174.897L274.443 149.285Z" fill="#355E93"/>
<path d="M373.73 175.238L383.377 150.334L282.133 117.619V149.539L373.73 175.238Z" fill="#355E93"/>
<rect width="1139" height="424" fill="black" style="mix-blend-mode:saturation"/>
</g>
<defs>
<linearGradient id="paint0_linear_345_2" x1="10.1484" y1="132.578" x2="74.9945" y2="132.578" gradientUnits="userSpaceOnUse">
<stop stop-color="#355E93"/>
<stop offset="1" stop-color="#728FB4"/>
</linearGradient>
<linearGradient id="paint1_linear_345_2" x1="476.117" y1="133.224" x2="539.213" y2="133.224" gradientUnits="userSpaceOnUse">
<stop stop-color="#355E93"/>
<stop offset="1" stop-color="#728FB4"/>
</linearGradient>
<linearGradient id="paint2_linear_345_2" x1="14.9297" y1="45.9" x2="534.765" y2="45.9" gradientUnits="userSpaceOnUse">
<stop stop-color="#355E93"/>
<stop offset="1" stop-color="#728FB4"/>
</linearGradient>
<linearGradient id="paint3_linear_345_2" x1="82.5234" y1="310.142" x2="467.902" y2="310.142" gradientUnits="userSpaceOnUse">
<stop stop-color="#355E93"/>
<stop offset="1" stop-color="#728FB4"/>
</linearGradient>
<clipPath id="clip0_345_2">
<rect width="1139" height="424" fill="white"/>
</clipPath>
</defs>
</svg>
